<svg xmlns="http://www.w3.org/2000/svg" viewBox="0 0 100 100" role="img" aria-labelledby="pl-favicon-title">
  <title id="pl-favicon-title">Padel Legacy</title>
  <!-- Cópia de src/assets/brand/logo-mark.svg — mantenha os dois em sincronia. -->
  <rect x="3" y="3" width="94" height="94" rx="22" fill="#98E822"/>
  <rect x="30" y="22" width="13" height="56" rx="4" fill="#0A0D14"/>
  <path
    fill-rule="evenodd"
    fill="#0A0D14"
    d="M40,22 H56 A10,10 0 0 1 66,32 V44 A10,10 0 0 1 56,54 H40 A10,10 0 0 1 30,44 V32 A10,10 0 0 1 40,22 Z
       M49,32 H53 A5,5 0 0 1 58,37 V39 A5,5 0 0 1 53,44 H49 A5,5 0 0 1 44,39 V37 A5,5 0 0 1 49,32 Z"
  />
  <circle cx="56" cy="78" r="9" fill="#0A0D14"/>
</svg>
